Coordinates
version=1
nRows=8
nColumns=40
inDegrees=yes

Units are S.I. units (second, meters, Newtons, ...)
If the header above contains a line with 'inDegrees', this indicates whether rotational values are in degrees (yes) or radians (no).

endheader
time	pelvis_tilt	pelvis_list	pelvis_rotation	pelvis_tx	pelvis_ty	pelvis_tz	hip_flexion_r	hip_adduction_r	hip_rotation_r	knee_angle_r	knee_angle_r_beta	ankle_angle_r	subtalar_angle_r	mtp_angle_r	hip_flexion_l	hip_adduction_l	hip_rotation_l	knee_angle_l	knee_angle_l_beta	ankle_angle_l	subtalar_angle_l	mtp_angle_l	lumbar_extension	lumbar_bending	lumbar_rotation	arm_flex_r	arm_add_r	arm_rot_r	elbow_flex_r	pro_sup_r	wrist_flex_r	wrist_dev_r	arm_flex_l	arm_add_l	arm_rot_l	elbow_flex_l	pro_sup_l	wrist_flex_l	wrist_dev_l
      4.11666667	      2.96831273	     -0.76865715	      4.38721960	     -0.34962479	      1.05893728	      0.03076169	     63.68301855	    -13.86535618	      0.52738794	    110.19554663	      1.92327511	    -10.58197541	    -16.04020888	      0.00000000	     42.57903037	     -4.64603360	      1.50834133	     44.56523044	      0.77781000	    -18.54437903	     -9.67998230	      0.00000000	    -67.70113759	      4.16263840	      1.64520608	     87.55636546	     -7.50756255	      5.86284494	     44.92074874	     88.62148901	      0.00000000	      0.00000000	     89.15863957	     -5.77954857	     13.10225274	     39.84185848	     81.50907242	      0.00000000	      0.00000000
      4.12500000	      2.91778259	     -1.36892956	      4.55323987	     -0.34894953	      1.05876756	      0.03057243	     65.33335365	    -13.81052859	      0.27751541	    111.61618302	      1.94806989	     -9.91331418	    -15.97561341	      0.00000000	     41.01163759	     -5.14720976	      1.74829734	     42.87864602	      0.74837355	    -19.00944612	     -9.46749694	      0.00000000	    -67.58348787	      4.74311506	      2.15588845	     87.52087189	     -7.46491278	      5.94036891	     44.91273110	     88.63251231	      0.00000000	      0.00000000	     89.02969003	     -5.82364466	     13.07060096	     39.71484179	     81.47721715	      0.00000000	      0.00000000
      4.13333333	      3.04722317	     -1.63716967	      4.67241657	     -0.34818219	      1.05906890	      0.03028689	     66.78855383	    -13.93997327	      0.38256263	    112.88820969	      1.97027095	     -8.35225010	    -15.72217551	      0.00000000	     39.18758535	     -5.46124797	      1.58693067	     41.21658290	      0.71936508	    -19.92816198	     -9.04834513	      0.00000000	    -67.67189141	      5.12863039	      2.39102972	     87.50523787	     -7.45560143	      6.18472869	     44.89924358	     88.62409731	      0.00000000	      0.00000000	     88.92093251	     -5.89985436	     13.06613114	     39.62345927	     81.43914719	      0.00000000	      0.00000000
      4.14166667	      3.18252286	     -1.81520541	      4.80816028	     -0.34736428	      1.05946964	      0.02997509	     68.19437607	    -14.10632972	      0.56407617	    113.95616153	      1.98891022	     -7.22225221	    -14.49613005	      0.00000000	     37.34787549	     -5.54758484	      1.73761565	     39.64672557	      0.69196590	    -20.41694051	     -9.25959647	      0.00000000	    -67.77193569	      5.47078993	      2.52982248	     87.48819227	     -7.46133757	      6.46318408	     44.86467043	     88.61269567	      0.00000000	      0.00000000	     88.80108968	     -5.97438384	     13.10685166	     39.58127406	     81.39904128	      0.00000000	      0.00000000
      4.15000000	      3.05941736	     -2.30390195	      4.94478350	     -0.34684391	      1.05941555	      0.03007394	     69.79589667	    -14.05943143	      0.32137774	    114.80136073	      2.00366173	     -6.59031110	    -14.49051423	      0.00000000	     36.13411777	     -6.00564793	      1.97535950	     38.56637023	      0.67311014	    -20.62187403	     -9.33879218	      0.00000000	    -67.61504871	      5.92460040	      2.94315440	     87.43798740	     -7.42758699	      6.51177640	     44.86383934	     88.57235064	      0.00000000	      0.00000000	     88.68009800	     -6.01983860	     13.08499203	     39.52731523	     81.27663917	      0.00000000	      0.00000000
      4.15833333	      3.15039977	     -2.64660547	      5.18412051	     -0.34604553	      1.05975499	      0.03006751	     71.17440130	    -14.20737491	      0.17385907	    115.55199458	      2.01676276	     -5.94195816	    -14.35274968	      0.00000000	     34.79945944	     -6.37130769	      2.07739755	     37.65570206	      0.65721598	    -21.23266960	     -9.21828478	      0.00000000	    -67.66447263	      6.38104574	      3.18421615	     87.32689258	     -7.41333262	      6.66494046	     44.90454595	     88.61962262	      0.00000000	      0.00000000	     88.55983515	     -6.08328279	     13.11605592	     39.47071571	     81.20440315	      0.00000000	      0.00000000
      4.16666667	      2.87560484	     -2.96610622	      5.13441494	     -0.34599456	      1.05990656	      0.03034413	     72.93180078	    -14.11082102	      0.11429328	    116.00941735	      2.02474630	     -5.33604116	    -14.01168792	      0.00000000	     33.95071219	     -6.79124098	      2.03507920	     36.99400896	      0.64566726	    -21.76282002	     -9.21530280	      0.00000000	    -67.42700942	      6.58114386	      3.50840596	     87.35280217	     -7.42998912	      6.85497685	     44.89544178	     88.62228430	      0.00000000	      0.00000000	     88.49104044	     -6.12867888	     13.11855207	     39.44216529	     81.16906291	      0.00000000	      0.00000000
      4.17500000	      2.96947025	     -3.19628550	      5.32050407	     -0.34529882	      1.06015560	      0.03032373	     74.27661596	    -14.28964442	     -0.04492759	    116.34472155	      2.03059846	     -5.18047741	    -14.00387868	      0.00000000	     32.96398520	     -7.09313351	      2.07368865	     36.85849805	      0.64330215	    -21.74703908	     -9.21423571	      0.00000000	    -67.48555931	      6.92339119	      3.68279146	     87.25914980	     -7.42027912	      6.86475090	     44.96254129	     88.39415164	      0.00000000	      0.00000000	     88.34733850	     -6.17829774	     13.07080215	     39.52380664	     81.02024707	      0.00000000	      0.00000000
